<?xml version="1.0" encoding="UTF-8" standalone="no"?> <svg xmlns="http://www.w3.org/2000/svg" viewBox="0 0 64 64"><g id="Layer_52" data-name="Layer 52"><path d="M59,32a26.925,26.925,0,0,0-5.517-16.35h0a26.9,26.9,0,0,0-2.7-3.04h-.01A27.01,27.01,0,0,0,38.63,5.82l0,0A27.079,27.079,0,0,0,22.554,6.7l0,0A27.009,27.009,0,0,0,9.03,46.19l0,0a27.13,27.13,0,0,0,9.819,9.388h0A26.816,26.816,0,0,0,25.66,58.24v0a26.979,26.979,0,0,0,18.526-2.152l-.005,0A27.054,27.054,0,0,0,58.08,39h0A27.019,27.019,0,0,0,59,32Z" style="fill:#57a4ff"/><path d="M59,32a26.925,26.925,0,0,0-5.517-16.35h0a26.9,26.9,0,0,0-2.7-3.04h-.01A27.068,27.068,0,0,0,40.764,6.469,26.865,26.865,0,0,1,40.078,17h0a27.054,27.054,0,0,1-13.9,17.09l0,0A26.871,26.871,0,0,1,14,37a27.039,27.039,0,0,1-6.341-.756v0c-.826-.2-1.631-.448-2.426-.72a26.9,26.9,0,0,0,3.8,10.67l0,0a27.13,27.13,0,0,0,9.819,9.388h0A26.816,26.816,0,0,0,25.66,58.24v0a26.979,26.979,0,0,0,18.526-2.152l-.005,0A27.054,27.054,0,0,0,58.08,39h0A27.019,27.019,0,0,0,59,32Z" style="fill:#2488ff"/><path d="M29,9l4,2,2-3,3.629-2.177a27.073,27.073,0,0,0-16.075.88L26,9Z" style="fill:#7ed63e"/><path d="M48,18l-2,4-5,1-3,6,6,3,2,5-1,6,2,5,3-6,4-3h4.078a27.061,27.061,0,0,0,.113-13.571h0a26.907,26.907,0,0,0-4.708-9.779Z" style="fill:#5eac24"/><path d="M20,47l1-4-3-6-6,4L9.032,46.193a27.13,27.13,0,0,0,9.819,9.388L21,52Z" style="fill:#5eac24"/><path d="M20.507,13.8a2,2,0,0,0-2.109-.068l-1.522.879,6.349,7.24,4.69-3.113Z" style="fill:#ff5023"/><path d="M36,47l-4,4-4,1-2.341,6.244a26.979,26.979,0,0,0,18.526-2.152L38,53Z" style="fill:#4e901e"/><path d="M28.876,35.392l1.522-.879a2,2,0,0,0,1-1.86l-.573-8.885-5.041,2.5Z" style="fill:#ff5023"/><path d="M19.813,33.7l.647-.373a2,2,0,0,0,.994-1.877l-.16-2.944-3.481,1.73Z" style="fill:#ff5023"/><path d="M16.583,23.008a2,2,0,0,0-2.123-.077l-.647.373,2,3.464,3.032-2.012Z" style="fill:#ff5023"/><polygon points="14.715 30.866 17.813 30.232 15.813 26.768 13.715 29.134 14.715 30.866" style="fill:#d80027"/><path d="M25.78,26.273v0l5.041-2.5v0l.235-.117a3.992,3.992,0,0,0,1.717-1.64L35,18l-4.587-.077a4,4,0,0,0-2.279.667l-.219.145.006,0-.006,0-4.69,3.113,0,0,0,0-7.412,4.92,2,3.464Z" style="fill:#ed1c24"/><path d="M12.305,50.453c-4.117.236-6.96-.614-8.019-2.454-1.134-1.958-.3-5.106,2.341-8.863a42.064,42.064,0,0,1,5.744-6.4,1,1,0,0,0-1.362-1.464,44.033,44.033,0,0,0-6.017,6.717C1.829,42.48.986,46.29,2.554,49,3.886,51.312,6.782,52.506,11,52.506q1.1,0,2.318-.109c.289-.026.6-.074.895-.11C13.546,51.706,12.908,51.1,12.305,50.453Z" style="fill:#ffcd00"/><path d="M58.473,26.721c.176-.235.358-.472.522-.705,3.168-4.492,4.016-8.3,2.451-11.017s-5.293-3.882-10.766-3.385a50.89,50.89,0,0,0-13.036,3.3,1,1,0,1,0,.712,1.869,48.894,48.894,0,0,1,12.5-3.179c4.579-.417,7.72.434,8.853,2.392,1.057,1.835.374,4.713-1.879,8.146.129.424.249.852.357,1.285S58.387,26.287,58.473,26.721Z" style="fill:#ffcd00"/></g></svg>